<svg enable-background="new 0 0 512 512" height="512" viewBox="0 0 512 512" width="512" xmlns="http://www.w3.org/2000/svg"><g id="Layer_4"><g><path d="m5.68 319.12c8.27-22.631 102.439-5.468 128.866-10.52-.8-7.266 1.138-13.538 5.356-19.318-53.457-45.684 15.174-98.044 55.46-47.781 22.722-14.635 50.374 5.152 56.392 28.528 22.797-3.001 35.515 18.877 38.627 38.57 67.639 0 135.278.01 202.918-.023 14.678-.725 13.948 15.7 12.629 26.077-.386 72.289-54.766 139.98-130.476 137.646-7.649 63.259-150.967 26.937-200.331 35.948-19.074-2.268-34.957-16.694-37.855-35.936-84.243 1.963-134.012-75.328-131.586-153.191zm488.725 1.848c-2.588-.508-446.775-.432-448.713.083.269 8.068.701 16.153 2.075 24.326 449.734-6.252 458.024 18.17 2.192 12.063 32.47 145.988 212.111 93.598 321.022 102.755 61.354 3.324 111.921-42.805 120.032-102.755-84.01 5.482-76.768-18.154 1.818-12.063 1.16-8.24 1.74-16.315 1.574-24.409zm-216.482-12.368c-8.966-43.48-30.148-14.96-37.013-30.712-1.727-12.978-10.537-25.049-23.486-28.477-12.274-7.384-22.348 17.26-29.179 4.002-23.332-45.283-76.202-21.594-48.798 17.993 31.716 28.851 1.697 10.617 2.698 37.061h69.765c-7.326-6.301-68.801-36.56-42.59-43.469 33.397 24.205 64.551 51.073 108.603 43.602zm-120.26 178.078c13.204 13.523 201.558 21.351 203.354-8.13-67.987 2.718-135.586 5.421-203.354 8.13z"/><path d="m506.32 80.08c-5.016 50.005-81.382 52.164-88.395 1.899-8.841-66.261 94.238-68.356 88.395-1.899zm-11.854-5.265c-.033-49.738-59.068-41.883-65.027.113-6.667 46.985 65.641 42.109 65.027-.113z"/><path d="m332.726 161.728c9.883-1.192 20.016 3.263 29.286 3.063 9.683-7.853 19.4-15.686 28.581-24.127 7.196-4.948 13.871-24.243 22.577-10.535 36.569 47.225 27.966 123.107-37.365 137.227-65.948 16.578-153.415-111.365-43.079-105.628zm65.81-11.459c-36.367 25.845-68.329 59.039-33.384 101.981 17.416-31.825 28.051-65.771 33.384-101.981zm-106.265 39.999c3.889 20.215 12.643 36.91 28.498 49.478 6.742-3.355 15.723-17.515 16.126-25.309-15.311-6.798-29.764-15.28-44.624-24.169zm103.15 23.916c39.205-6.656 28.478-37.728 15.438-64.446-2.949 22.149-8.066 43.367-15.438 64.446zm-17.265 39.515c17.747-5.683 35.339-17.931 41.266-36.331-27.574 12.361-29.294 6.008-41.266 36.331zm-26.84-78.107c-6.095-1.316-12.279-1.948-18.458-1.672 1.662 8.813 2.13 20.246 5.855 27.959 3.027-9.509 7.077-17.926 12.603-26.287zm-51.984 4.524c3.454 2.799 22.404 13.553 24.71 13.94-1.218-6.369-2.421-12.666-3.615-18.909-4.652.113-18.295 3.371-21.095 4.969z"/><path d="m98.665 75.122c-15.548 3.447-60.206-29.964-41.659-43.544 17.441-1.519 87.417-37.245 93.375-22.054 10.163 33.108-16.959 67.49-51.716 65.598zm31.207-54.086c1.69 31.669-38.598 42.604-53.591 17.113-3.448 1.053-6.622 2.07-9.999 3.211 17.7 40.454 83.124 16.978 73.425-23.416-3.27 1.028-6.515 2.048-9.835 3.092zm-41.346 13.175c7.254 11.963 30.418 4.382 28.668-9.134-9.489 3.023-18.966 6.043-28.668 9.134z"/><path d="m163.678 159.475c36.853 35.797-29.177 62.837-28.077 11.56-51.953 15.167-51.802-61.287-1.134-68.404 34.867-14.342 69.701 41.375 29.211 56.844zm-18.276-51.415c-47.312-.584-49.668 69.289-7.824 48.74 18.301-5.327 2.993 30.65 18.311 30.6 17.038-3.709-2.049-19.29-6.506-26.651-8.108-14.455 23.302-10.42 20.554-25.184-1.296-12.095-10.561-27.893-24.535-27.505z"/><path d="m353.421 88.257c3.457 51.433-63.597 27.161-28.566-10.128-51.855-24.411 8.065-88.591 55.549-44.085 24.31 19.342 5.69 68.22-26.983 54.213zm-9.942-57.333c-15.846-.803-30.482 6.859-31.792 20.554-2.507 15.343 33.346 12.111 27.996 26.551-3.349 7.717-21.908 21.875-7.68 27.243 18.457 3.66-.348-36.067 19.003-31.045 40.837 18.469 37.112-43.043-7.527-43.303z"/><path d="m96.234 242.508c.11 58.505-91.115 56.92-89.271-1.122.092-56.428 89.421-57.94 89.271 1.122zm-12.114.021c.016-46.154-61.013-42.781-65.077-1.28-5.173 52.838 65.679 43.333 65.077 1.28z"/><path d="m453.044 247.868c11.656-62.405 63.419 23.516 18.238 29.141-10.976-4.706-18.251-15.602-18.238-29.141zm16.062-9.277c-7.925 8.857-2.948 22.375 4.413 25.607 6.188-7.303 4.747-20.093-4.413-25.607z"/><path d="m22.939 132.734c1.408-45.452 54.59-1.36 34.849 24.971-13.288 13.193-35.865-9.827-34.849-24.971zm13.313-6.881c-4.395 9.962 3.416 21.875 12.2 22.903 4.199-10.677-3.737-21.53-12.2-22.903z"/><path d="m227.487 125.449c-30.358-3.154-2.093-52.784 23.004-43.49 18.699 13.043-2.72 45.284-23.004 43.49zm.049-12.358c10.841.592 19.372-11.049 17.033-19.43-11.071-.234-18.983 10.96-17.033 19.43z"/><path d="m239.1 190.531c.341 23.57-36.384 23.381-36.055-.05-.274-23.204 36.472-23.309 36.055.05zm-12.066-.049c.081-7.733-12.139-7.454-11.908.164.146 7.691 12.074 7.641 11.908-.164z"/><path d="m473.858 185.801c-23.508.238-23.129-36.62.311-36.04 23.201-.117 23.075 36.566-.311 36.04zm-.006-12.071c7.748.21 7.896-11.808.201-11.896-7.669-.176-7.994 11.825-.201 11.896z"/><path d="m488.84 450.547c-9.725 3.299-16.388-10.58-4.817-12.016 15.489-4.254 24.175 12.679 4.817 12.026 0-.003 0-.007 0-.01z"/><path d="m448.108 479.25c-.83-19.429 16.263-10.567 12.02 4.803-1.713 11.676-15.339 4.827-11.99-4.803-.01 0-.02 0-.03 0z"/><path d="m475.667 459.199c5.478 1.855 16.588 10.915 11.019 17.207-8.024 8.105-26.858-16.187-11.019-17.207z"/><path d="m413.517 345.41c7.85-.334 7.913 12.062.198 12.024-7.762.231-8.064-12.05-.198-12.024z"/><path d="m479.958 74.905c.176 23.517-36.575 23.194-36.033-.308-.117-23.264 36.559-23.033 36.033.308zm-12.044-.201c-.01-7.669-12.174-7.429-11.943.216.101 7.655 12.166 7.495 11.943-.216z"/><path d="m51.5 260.158c-23.394.333-23.249-36.272.01-36.033 23.318-.419 23.558 36.523-.01 36.033zm-.115-12.046c7.769.312 8.021-11.704.357-11.921-7.626-.268-8.184 11.772-.357 11.921z"/></g></g></svg>