<svg width="18" height="18" viewBox="0 0 18 18" fill="none" xmlns="http://www.w3.org/2000/svg">
<g clip-path="url(#clip0_99_202)">
<path d="M9 3.75C8.70163 3.75 8.41548 3.63147 8.2045 3.4205C7.99353 3.20952 7.875 2.92337 7.875 2.625V1.125C7.875 0.826631 7.99353 0.540483 8.2045 0.329505C8.41548 0.118526 8.70163 0 9 0C9.29837 0 9.58452 0.118526 9.7955 0.329505C10.0065 0.540483 10.125 0.826631 10.125 1.125V2.625C10.125 2.92337 10.0065 3.20952 9.7955 3.4205C9.58452 3.63147 9.29837 3.75 9 3.75ZM10.125 16.875V15.375C10.125 15.0766 10.0065 14.7905 9.7955 14.5795C9.58452 14.3685 9.29837 14.25 9 14.25C8.70163 14.25 8.41548 14.3685 8.2045 14.5795C7.99353 14.7905 7.875 15.0766 7.875 15.375V16.875C7.875 17.1734 7.99353 17.4595 8.2045 17.6705C8.41548 17.8815 8.70163 18 9 18C9.29837 18 9.58452 17.8815 9.7955 17.6705C10.0065 17.4595 10.125 17.1734 10.125 16.875ZM3.75 9C3.75 8.70163 3.63147 8.41548 3.4205 8.2045C3.20952 7.99353 2.92337 7.875 2.625 7.875H1.125C0.826631 7.875 0.540483 7.99353 0.329505 8.2045C0.118526 8.41548 0 8.70163 0 9C0 9.29837 0.118526 9.58452 0.329505 9.7955C0.540483 10.0065 0.826631 10.125 1.125 10.125H2.625C2.92337 10.125 3.20952 10.0065 3.4205 9.7955C3.63147 9.58452 3.75 9.29837 3.75 9ZM18 9C18 8.70163 17.8815 8.41548 17.6705 8.2045C17.4595 7.99353 17.1734 7.875 16.875 7.875H15.375C15.0766 7.875 14.7905 7.99353 14.5795 8.2045C14.3685 8.41548 14.25 8.70163 14.25 9C14.25 9.29837 14.3685 9.58452 14.5795 9.7955C14.7905 10.0065 15.0766 10.125 15.375 10.125H16.875C17.1734 10.125 17.4595 10.0065 17.6705 9.7955C17.8815 9.58452 18 9.29837 18 9ZM13.107 3.99675L13.8428 2.6895C13.9834 2.43003 14.0164 2.1257 13.9347 1.84211C13.853 1.55852 13.6632 1.31838 13.4061 1.17345C13.149 1.02853 12.8453 0.99043 12.5604 1.06737C12.2755 1.1443 12.0322 1.33012 11.883 1.58475L11.1465 2.892C11.0739 3.02076 11.0274 3.16257 11.0096 3.30932C10.9918 3.45607 11.0032 3.60488 11.0429 3.74725C11.0827 3.88962 11.1501 4.02276 11.2414 4.13905C11.3326 4.25534 11.4459 4.35251 11.5747 4.425C11.7428 4.52054 11.9327 4.57068 12.126 4.5705C12.3257 4.57056 12.5219 4.51744 12.6943 4.4166C12.8667 4.31577 13.0091 4.17086 13.107 3.99675ZM6.117 16.4152L6.8535 15.108C7 14.848 7.03722 14.5405 6.95698 14.2531C6.87674 13.9656 6.6856 13.7219 6.42562 13.5754C6.16565 13.4289 5.85812 13.3917 5.5707 13.4719C5.28327 13.5521 5.0395 13.7433 4.893 14.0033L4.15725 15.3105C4.01663 15.57 3.9836 15.8743 4.06528 16.1579C4.14696 16.4415 4.3368 16.6816 4.59388 16.8265C4.85097 16.9715 5.15471 17.0096 5.43962 16.9326C5.72454 16.8557 5.96781 16.6699 6.117 16.4152ZM4.425 6.42525C4.57146 6.16536 4.6087 5.85794 4.52853 5.5706C4.44836 5.28326 4.25735 5.03953 3.9975 4.893L2.6895 4.15725C2.43003 4.01663 2.1257 3.9836 1.84211 4.06528C1.55852 4.14696 1.31838 4.3368 1.17345 4.59388C1.02853 4.85097 0.99043 5.15471 1.06737 5.43962C1.1443 5.72454 1.33012 5.96781 1.58475 6.117L2.892 6.8535C3.02076 6.9261 3.16257 6.97262 3.30932 6.99039C3.45607 7.00816 3.60488 6.99684 3.74725 6.95707C3.88962 6.9173 4.02276 6.84986 4.13905 6.7586C4.25534 6.66735 4.35251 6.55408 4.425 6.42525ZM16.8435 13.4152C16.99 13.1554 17.0272 12.8479 16.947 12.5606C16.8669 12.2733 16.6758 12.0295 16.416 11.883L15.1088 11.1465C14.98 11.074 14.8383 11.0275 14.6916 11.0097C14.5449 10.992 14.3961 11.0033 14.2538 11.043C14.1115 11.0828 13.9784 11.1501 13.8621 11.2413C13.7458 11.3325 13.6487 11.4456 13.5761 11.5744C13.5036 11.7031 13.4571 11.8449 13.4394 11.9915C13.4216 12.1382 13.4329 12.287 13.4726 12.4293C13.5529 12.7167 13.744 12.9605 14.004 13.107L15.3113 13.8428C15.5711 13.9892 15.8786 14.0264 16.1659 13.9463C16.4532 13.8661 16.697 13.6751 16.8435 13.4152ZM6.42525 4.425C6.68523 4.2786 6.8764 4.03492 6.95671 3.74757C7.03702 3.46022 6.9999 3.15273 6.8535 2.89275L6.117 1.58475C5.96781 1.33012 5.72454 1.1443 5.43962 1.06737C5.15471 0.99043 4.85097 1.02853 4.59388 1.17345C4.3368 1.31838 4.14696 1.55852 4.06528 1.84211C3.9836 2.1257 4.01663 2.43003 4.15725 2.6895L4.893 3.99675C4.99096 4.17072 5.13346 4.31548 5.30586 4.41618C5.47826 4.51688 5.67435 4.56988 5.874 4.56975C6.0672 4.57016 6.25718 4.52028 6.42525 4.425ZM13.4152 16.8435C13.6751 16.697 13.8661 16.4532 13.9463 16.1659C14.0264 15.8786 13.9892 15.5711 13.8428 15.3113L13.107 14.004C12.9605 13.744 12.7167 13.5529 12.4293 13.4726C12.1419 13.3924 11.8344 13.4296 11.5744 13.5761C11.3144 13.7226 11.1233 13.9664 11.043 14.2538C10.9628 14.5412 11 14.8488 11.1465 15.1088L11.883 16.416C12.0295 16.6758 12.2733 16.8669 12.5606 16.947C12.8479 17.0272 13.1554 16.99 13.4152 16.8435ZM15.108 6.8535L16.4152 6.117C16.6699 5.96781 16.8557 5.72454 16.9326 5.43962C17.0096 5.15471 16.9715 4.85097 16.8265 4.59388C16.6816 4.3368 16.4415 4.14696 16.1579 4.06528C15.8743 3.9836 15.57 4.01663 15.3105 4.15725L14.0033 4.893C13.7433 5.0395 13.5521 5.28327 13.4719 5.5707C13.3917 5.85812 13.4289 6.16565 13.5754 6.42562C13.7219 6.6856 13.9656 6.87674 14.2531 6.95698C14.5405 7.03722 14.848 7 15.108 6.8535ZM2.6895 13.8428L3.99675 13.107C4.12548 13.0345 4.23866 12.9373 4.32983 12.821C4.421 12.7047 4.48837 12.5716 4.5281 12.4293C4.56784 12.287 4.57915 12.1382 4.56139 11.9915C4.54364 11.8449 4.49716 11.7031 4.42462 11.5744C4.35209 11.4456 4.2549 11.3325 4.13862 11.2413C4.02234 11.1501 3.88925 11.0828 3.74693 11.043C3.60461 11.0033 3.45586 10.992 3.30917 11.0097C3.16248 11.0275 3.02073 11.074 2.892 11.1465L1.58475 11.883C1.36833 12.0053 1.1985 12.1958 1.10178 12.4247C1.00505 12.6537 0.986884 12.9083 1.05011 13.1487C1.11333 13.389 1.25439 13.6017 1.45125 13.7535C1.64811 13.9052 1.88969 13.9875 2.13825 13.9875C2.33145 13.9879 2.52144 13.9381 2.6895 13.8428Z" fill="#183E90"/>
</g>
<defs>
<clipPath id="clip0_99_202">
<rect width="18" height="18" fill="white"/>
</clipPath>
</defs>
</svg>
