<svg width="18" height="18" viewBox="0 0 18 18" fill="none" xmlns="http://www.w3.org/2000/svg">
<g clip-path="url(#clip0_99_220)">
<path d="M17.9251 8.57773C17.6304 6.3093 16.483 4.23819 14.7161 2.78536C12.9492 1.33254 10.6953 0.607042 8.41272 0.756319C6.1301 0.905597 3.98997 1.91845 2.42733 3.58902C0.864681 5.25958 -0.00321018 7.46249 5.55405e-05 9.74998C-0.00426776 10.9744 0.243849 12.1865 0.728917 13.3107C1.21398 14.4349 1.92559 15.4471 2.81931 16.284C3.50281 16.9168 4.40342 17.2627 5.33481 17.25H12.6601C13.644 17.2523 14.5894 16.8673 15.2918 16.1782C16.2928 15.2043 17.0523 14.0098 17.5095 12.6902C17.9667 11.3705 18.109 9.9622 17.9251 8.57773ZM5.60405 14.7457C5.53898 14.8197 5.45995 14.8802 5.3715 14.9236C5.28304 14.9671 5.18689 14.9927 5.08854 14.999C4.99019 15.0052 4.89157 14.992 4.79832 14.9602C4.70506 14.9283 4.619 14.8784 4.54505 14.8132C3.51425 13.9082 2.78388 12.7104 2.45139 11.3796C2.11889 10.0488 2.20007 8.64826 2.68409 7.36477C3.16812 6.08129 4.03198 4.9759 5.16045 4.19605C6.28891 3.41619 7.62834 2.99895 9.00006 2.99998C9.56895 3.00016 10.1356 3.07146 10.6868 3.21223C10.7822 3.23686 10.8719 3.28004 10.9506 3.33931C11.0294 3.39858 11.0957 3.47278 11.1458 3.55768C11.1959 3.64257 11.2287 3.7365 11.2425 3.8341C11.2563 3.93169 11.2507 4.03105 11.2261 4.12648C11.2014 4.22192 11.1583 4.31158 11.099 4.39033C11.0397 4.46908 10.9655 4.53538 10.8806 4.58546C10.7957 4.63553 10.7018 4.66839 10.6042 4.68217C10.5066 4.69594 10.4072 4.69036 10.3118 4.66573C9.16918 4.36958 7.96007 4.46746 6.87997 4.94356C5.79987 5.41966 4.91191 6.24614 4.35968 7.28937C3.80745 8.3326 3.62322 9.5316 3.83678 10.6925C4.05034 11.8534 4.64921 12.9083 5.53655 13.6867C5.61056 13.7518 5.67102 13.8308 5.71447 13.9193C5.75792 14.0077 5.78351 14.1039 5.78977 14.2022C5.79604 14.3006 5.78287 14.3992 5.751 14.4925C5.71913 14.5857 5.6692 14.6718 5.60405 14.7457ZM9.00006 11.25C8.78504 11.2528 8.57193 11.2094 8.37517 11.1227C8.17842 11.0359 8.00261 10.9079 7.85966 10.7472C7.71672 10.5866 7.60999 10.3971 7.54671 10.1916C7.48342 9.98608 7.46506 9.76936 7.49286 9.55614C7.52067 9.34291 7.594 9.13816 7.70787 8.95575C7.82175 8.77335 7.97351 8.61756 8.15287 8.49895C8.33223 8.38034 8.53499 8.30168 8.74742 8.2683C8.95984 8.23492 9.17696 8.2476 9.38406 8.30548L12.2198 5.46973C12.289 5.3981 12.3717 5.34097 12.4633 5.30166C12.5548 5.26235 12.6532 5.24166 12.7528 5.2408C12.8523 5.23993 12.9511 5.25891 13.0433 5.29662C13.1354 5.33433 13.2192 5.39002 13.2896 5.46044C13.36 5.53086 13.4157 5.6146 13.4534 5.70677C13.4911 5.79894 13.5101 5.8977 13.5092 5.99729C13.5084 6.09687 13.4877 6.19528 13.4484 6.28679C13.4091 6.37829 13.3519 6.46105 13.2803 6.53023L10.4446 9.36598C10.5071 9.58781 10.517 9.82117 10.4736 10.0475C10.4301 10.2738 10.3345 10.4869 10.1942 10.6698C10.054 10.8527 9.87305 11.0004 9.66575 11.1011C9.45845 11.2018 9.23051 11.2528 9.00006 11.25ZM13.4551 14.8132C13.3051 14.9391 13.1119 15.0014 12.9166 14.9867C12.7214 14.972 12.5396 14.8816 12.4102 14.7347C12.2807 14.5878 12.2138 14.3961 12.2238 14.2006C12.2338 14.0051 12.3198 13.8212 12.4636 13.6882C13.1928 13.0487 13.7304 12.2193 14.0166 11.2925C14.3027 10.3657 14.3261 9.37761 14.0843 8.43823C14.0346 8.24549 14.0635 8.04088 14.1646 7.86943C14.2657 7.69797 14.4308 7.57371 14.6236 7.52398C14.8163 7.47426 15.0209 7.50313 15.1924 7.60426C15.3638 7.70539 15.4881 7.87049 15.5378 8.06323C15.6786 8.61443 15.7499 9.18108 15.7501 9.74998C15.7489 10.7085 15.5437 11.6558 15.148 12.5288C14.7523 13.4019 14.1752 14.1806 13.4551 14.8132Z" fill="#183E90"/>
</g>
<defs>
<clipPath id="clip0_99_220">
<rect width="18" height="18" fill="white"/>
</clipPath>
</defs>
</svg>
