<svg width="20" height="20" viewBox="0 0 20 20" fill="none" xmlns="http://www.w3.org/2000/svg">
<g clip-path="url(#clip0_99_192)">
<path d="M12.5 9C12.5 9.82725 11.8272 10.5 11 10.5C10.1727 10.5 9.49998 9.82725 9.49998 9C9.49998 8.17275 10.1727 7.5 11 7.5C11.8272 7.5 12.5 8.17275 12.5 9ZM20.0007 11.661C20.0007 13.2083 19.0257 14.619 17.5752 15.1718C16.5695 15.5557 15.6192 15.75 14.7492 15.75C13.5237 15.75 12.4257 15.4508 11.3645 15.1613C10.3535 14.8853 9.39948 14.625 8.37498 14.625C7.19673 14.625 6.45348 14.7008 5.81073 14.8868C4.90623 15.147 3.95523 14.9715 3.20073 14.4037C2.43798 13.83 2.00073 12.954 2.00073 12V6.339C2.00073 4.79175 2.97498 3.381 4.42548 2.82825C5.43123 2.44425 6.38223 2.25 7.25148 2.25C8.47698 2.25 9.57423 2.54925 10.6362 2.83875C11.6472 3.11475 12.6012 3.375 13.6257 3.375C14.8032 3.375 15.5472 3.29925 16.19 3.11325C17.096 2.853 18.047 3.0285 18.8007 3.59625C19.5635 4.17 20.0007 5.046 20.0007 6V11.661ZM6.50073 10.5C6.50073 10.086 6.16473 9.75 5.75073 9.75C5.33673 9.75 5.00073 10.086 5.00073 10.5C5.00073 10.914 5.33673 11.25 5.75073 11.25C6.16473 11.25 6.50073 10.914 6.50073 10.5ZM6.50073 6C6.50073 5.586 6.16473 5.25 5.75073 5.25C5.33673 5.25 5.00073 5.586 5.00073 6C5.00073 6.414 5.33673 6.75 5.75073 6.75C6.16473 6.75 6.50073 6.414 6.50073 6ZM14.0007 9C14.0007 7.3455 12.6552 6 11.0007 6C9.34623 6 8.00073 7.3455 8.00073 9C8.00073 10.6545 9.34623 12 11.0007 12C12.6552 12 14.0007 10.6545 14.0007 9ZM17.0007 12C17.0007 11.586 16.6647 11.25 16.2507 11.25C15.8367 11.25 15.5007 11.586 15.5007 12C15.5007 12.414 15.8367 12.75 16.2507 12.75C16.6647 12.75 17.0007 12.414 17.0007 12ZM17.0007 7.5C17.0007 7.086 16.6647 6.75 16.2507 6.75C15.8367 6.75 15.5007 7.086 15.5007 7.5C15.5007 7.914 15.8367 8.25 16.2507 8.25C16.6647 8.25 17.0007 7.914 17.0007 7.5Z" fill="#183E90"/>
</g>
<defs>
<clipPath id="clip0_99_192">
<rect width="18" height="18" fill="white" transform="translate(2)"/>
</clipPath>
</defs>
</svg>
