<svg width="18" height="18" viewBox="0 0 18 18" fill="none" xmlns="http://www.w3.org/2000/svg">
<g clip-path="url(#clip0_100_233)">
<path d="M12.9375 8.28598C11.8717 8.28598 10.9148 8.45398 10.125 8.74948V3.78598C10.125 2.04748 7.99575 0.785976 5.0625 0.785976C2.12925 0.785976 0 2.04748 0 3.78598V15.2235C0 16.8795 2.08125 18.036 5.0625 18.036C6.72225 18.036 8.10225 17.6767 9 17.073C9.89775 17.6767 11.2778 18.036 12.9375 18.036C15.9187 18.036 18 16.8795 18 15.2235V11.286C18 9.54748 15.8708 8.28598 12.9375 8.28598ZM12.9375 10.536C14.4975 10.536 15.471 11.0242 15.7133 11.286C15.471 11.5477 14.4975 12.036 12.9375 12.036C11.3775 12.036 10.404 11.5477 10.1617 11.286C10.404 11.0242 11.3775 10.536 12.9375 10.536ZM7.875 7.48273C7.734 7.72273 6.73875 8.28598 5.0625 8.28598C3.35625 8.28598 2.3505 7.70098 2.25 7.53598V6.32248C3.03975 6.61798 3.99675 6.78598 5.0625 6.78598C6.12825 6.78598 7.08525 6.61798 7.875 6.32248V7.48273ZM2.25 10.0725C3.03975 10.368 3.99675 10.536 5.0625 10.536C6.12825 10.536 7.08525 10.368 7.875 10.0725V11.2327C7.734 11.4735 6.73875 12.036 5.0625 12.036C3.35625 12.036 2.3505 11.4517 2.25 11.286V10.0725ZM5.0625 3.03598C6.62175 3.03598 7.596 3.52423 7.83825 3.78598C7.596 4.04773 6.62175 4.53598 5.0625 4.53598C3.50325 4.53598 2.529 4.04773 2.28675 3.78598C2.529 3.52423 3.50325 3.03598 5.0625 3.03598ZM2.25 15.1072V13.8225C3.03975 14.118 3.99675 14.286 5.0625 14.286C6.12825 14.286 7.08525 14.118 7.875 13.8225V15.1072C7.6515 15.321 6.717 15.786 5.0625 15.786C3.408 15.786 2.4735 15.321 2.25 15.1072ZM12.9375 15.786C11.283 15.786 10.3485 15.321 10.125 15.1072V13.8225C10.9148 14.118 11.8717 14.286 12.9375 14.286C14.0033 14.286 14.9602 14.118 15.75 13.8225V15.1072C15.5265 15.321 14.592 15.786 12.9375 15.786ZM11.814 2.54548L14.1112 0.247476C14.3948 -0.0360239 14.8545 -0.0360239 15.138 0.247476L17.4352 2.54473C17.8927 3.00223 17.5688 3.78448 16.9215 3.78448H15.7493V5.66023C15.7493 6.28198 15.2453 6.78523 14.6243 6.78523C14.0033 6.78523 13.4993 6.28198 13.4993 5.66023V3.78448H12.327C11.6798 3.78448 11.3558 3.00223 11.8133 2.54473L11.814 2.54548Z" fill="#183E90"/>
</g>
<defs>
<clipPath id="clip0_100_233">
<rect width="18" height="18" fill="white"/>
</clipPath>
</defs>
</svg>
