<svg width="18" height="18" viewBox="0 0 18 18" fill="none" xmlns="http://www.w3.org/2000/svg">
<g clip-path="url(#clip0_99_222)">
<path d="M11.25 2.25V15.75C11.25 16.995 10.245 18 9 18C7.755 18 6.75 16.995 6.75 15.75V2.25C6.75 1.005 7.755 0 9 0C10.245 0 11.25 1.005 11.25 2.25ZM15.75 4.5C14.505 4.5 13.5 5.505 13.5 6.75V15.75C13.5 16.995 14.505 18 15.75 18C16.995 18 18 16.995 18 15.75V6.75C18 5.505 16.995 4.5 15.75 4.5ZM2.25 9C1.005 9 0 10.005 0 11.25V15.75C0 16.995 1.005 18 2.25 18C3.495 18 4.5 16.995 4.5 15.75V11.25C4.5 10.005 3.495 9 2.25 9Z" fill="#183E90"/>
</g>
<defs>
<clipPath id="clip0_99_222">
<rect width="18" height="18" fill="white"/>
</clipPath>
</defs>
</svg>
